# xmcd CD database file
#
# Track frame offsets:
#	150
#	53022
#	100675
#	156032
#	201604
#	228336
#	261875
#	304351
#
# Disc length: 4565 seconds
#
# Revision: 1
# Processed by: cddbd v1.5.2PL0 Copyright (c) Steve Scherf et al.
# Submitted via: CDex 1.70beta2
#
DISCID=6811d308
DTITLE=Buch und Sprecher: Günter Grass - Grimms Wörter CD03
DYEAR=2010
DGENRE=Hörbuch
TTITLE0=018 Kapitel 2: Briefwechsel - Den Brüdern Grimm jedoch
TTITLE1=019 Kapitel 2: Briefwechsel - Eigentlich hätte ich nicht
TTITLE2=020 Kapitel 3: Die Cäsur
TTITLE3=021 Kapitel 3: Die Cäsur - Gleichwohl kann es sein
TTITLE4=022 Kapitel 3: Die Cäsur - Vielzimmrig mußte die neue
TTITLE5=023 Kapitel 3: Die Cäsur - Gestützt auf diese Citate
TTITLE6=024 Kapitel 3: Die Cäsur - Doch so eifrig
TTITLE7=025 Kapitel 3: Die Cäsur - Ein, wie anzunehmen ist, bleibender
EXTD=YEAR: 2010
EXTT0=
EXTT1=
EXTT2=
EXTT3=
EXTT4=
EXTT5=
EXTT6=
EXTT7=
PLAYORDER=
